<?xml version="1.0" encoding="UTF-8" standalone="no"?>
<!-- Created with Inkscape (http://www.inkscape.org/) -->

<svg
   xmlns:osb="http://www.openswatchbook.org/uri/2009/osb"
   xmlns:dc="http://purl.org/dc/elements/1.1/"
   xmlns:cc="http://creativecommons.org/ns#"
   xmlns:rdf="http://www.w3.org/1999/02/22-rdf-syntax-ns#"
   xmlns:svg="http://www.w3.org/2000/svg"
   xmlns="http://www.w3.org/2000/svg"
   xmlns:sodipodi="http://sodipodi.sourceforge.net/DTD/sodipodi-0.dtd"
   xmlns:inkscape="http://www.inkscape.org/namespaces/inkscape"
   width="744.09448819"
   height="1052.3622047"
   id="svg2"
   version="1.1"
   inkscape:version="0.48.3.1 r9886"
   sodipodi:docname="punti.svg">
  <defs
     id="defs4">
    <marker
       inkscape:stockid="Arrow1Lstart"
       orient="auto"
       refY="0.0"
       refX="0.0"
       id="Arrow1Lstart"
       style="overflow:visible">
      <path
         id="path3963"
         d="M 0.0,0.0 L 5.0,-5.0 L -12.5,0.0 L 5.0,5.0 L 0.0,0.0 z "
         style="fill-rule:evenodd;stroke:#000000;stroke-width:1.0pt"
         transform="scale(0.8) translate(12.5,0)" />
    </marker>
    <marker
       inkscape:stockid="Arrow1Lend"
       orient="auto"
       refY="0.0"
       refX="0.0"
       id="Arrow1Lend"
       style="overflow:visible;">
      <path
         id="path3764"
         d="M 0.0,0.0 L 5.0,-5.0 L -12.5,0.0 L 5.0,5.0 L 0.0,0.0 z "
         style="fill-rule:evenodd;stroke:#000000;stroke-width:1.0pt;"
         transform="scale(0.8) rotate(180) translate(12.5,0)" />
    </marker>
    <linearGradient
       id="linearGradient4571"
       osb:paint="solid">
      <stop
         style="stop-color:#000000;stop-opacity:1;"
         offset="0"
         id="stop4573" />
    </linearGradient>
    <marker
       inkscape:stockid="Arrow2Lstart"
       orient="auto"
       refY="0.0"
       refX="0.0"
       id="Arrow2Lstart"
       style="overflow:visible">
      <path
         id="path3779"
         style="fill-rule:evenodd;stroke-width:0.62500000;stroke-linejoin:round"
         d="M 8.7185878,4.0337352 L -2.2072895,0.016013256 L 8.7185884,-4.0017078 C 6.9730900,-1.6296469 6.9831476,1.6157441 8.7185878,4.0337352 z "
         transform="scale(1.1) translate(1,0)" />
    </marker>
    <marker
       inkscape:stockid="Arrow2Lend"
       orient="auto"
       refY="0.0"
       refX="0.0"
       id="Arrow2Lend"
       style="overflow:visible;">
      <path
         id="path3782"
         style="fill-rule:evenodd;stroke-width:0.62500000;stroke-linejoin:round;"
         d="M 8.7185878,4.0337352 L -2.2072895,0.016013256 L 8.7185884,-4.0017078 C 6.9730900,-1.6296469 6.9831476,1.6157441 8.7185878,4.0337352 z "
         transform="scale(1.1) rotate(180) translate(1,0)" />
    </marker>
    <marker
       inkscape:stockid="Arrow1Lstart"
       orient="auto"
       refY="0"
       refX="0"
       id="Arrow1Lstart-3"
       style="overflow:visible">
      <path
         inkscape:connector-curvature="0"
         id="path3963-2"
         d="M 0,0 5,-5 -12.5,0 5,5 0,0 z"
         style="fill-rule:evenodd;stroke:#000000;stroke-width:1pt"
         transform="matrix(0.8,0,0,0.8,10,0)" />
    </marker>
    <marker
       inkscape:stockid="Arrow1Lstart"
       orient="auto"
       refY="0"
       refX="0"
       id="Arrow1Lstart-31"
       style="overflow:visible">
      <path
         inkscape:connector-curvature="0"
         id="path3963-8"
         d="M 0,0 5,-5 -12.5,0 5,5 0,0 z"
         style="fill-rule:evenodd;stroke:#000000;stroke-width:1pt"
         transform="matrix(0.8,0,0,0.8,10,0)" />
    </marker>
    <marker
       inkscape:stockid="Arrow1Lstart"
       orient="auto"
       refY="0"
       refX="0"
       id="Arrow1Lstart-4"
       style="overflow:visible">
      <path
         inkscape:connector-curvature="0"
         id="path3963-4"
         d="M 0,0 5,-5 -12.5,0 5,5 0,0 z"
         style="fill-rule:evenodd;stroke:#000000;stroke-width:1pt"
         transform="matrix(0.8,0,0,0.8,10,0)" />
    </marker>
  </defs>
  <sodipodi:namedview
     id="base"
     pagecolor="#ffffff"
     bordercolor="#666666"
     borderopacity="1.0"
     inkscape:pageopacity="0.0"
     inkscape:pageshadow="2"
     inkscape:zoom="1.4"
     inkscape:cx="429.47527"
     inkscape:cy="481.96066"
     inkscape:document-units="px"
     inkscape:current-layer="layer1"
     showgrid="false"
     inkscape:window-width="1366"
     inkscape:window-height="744"
     inkscape:window-x="0"
     inkscape:window-y="24"
     inkscape:window-maximized="1" />
  <metadata
     id="metadata7">
    <rdf:RDF>
      <cc:Work
         rdf:about="">
        <dc:format>image/svg+xml</dc:format>
        <dc:type
           rdf:resource="http://purl.org/dc/dcmitype/StillImage" />
        <dc:title />
      </cc:Work>
    </rdf:RDF>
  </metadata>
  <g
     inkscape:label="Livello 1"
     inkscape:groupmode="layer"
     id="layer1">
    <path
       style="fill:none;stroke:#000000;stroke-width:1px;stroke-linecap:butt;stroke-linejoin:miter;stroke-opacity:1;marker-start:url(#Arrow2Lstart)"
       d="m 276.7818,400.81379 0,232.33509"
       id="path2985"
       inkscape:connector-curvature="0" />
    <path
       style="fill:none;stroke:#000000;stroke-width:1px;stroke-linecap:butt;stroke-linejoin:miter;stroke-opacity:1;marker-end:url(#Arrow2Lend)"
       d="m 232.33509,589.71232 267.69042,0"
       id="path2987"
       inkscape:connector-curvature="0" />
    <text
       xml:space="preserve"
       style="font-size:40px;font-style:normal;font-weight:normal;line-height:125%;letter-spacing:0px;word-spacing:0px;fill:#000000;fill-opacity:1;stroke:none;font-family:Sans"
       x="471.00327"
       y="604.03156"
       id="text5891-1-4"
       sodipodi:linespacing="125%"><tspan
         sodipodi:role="line"
         id="tspan5893-3-1"
         x="471.00327"
         y="604.03156"
         style="font-size:12px;font-style:normal;font-variant:normal;font-weight:normal;font-stretch:normal;text-align:start;line-height:125%;writing-mode:lr-tb;text-anchor:start;font-family:Sans;-inkscape-font-specification:Sans">$x$</tspan></text>
    <text
       xml:space="preserve"
       style="font-size:40px;font-style:normal;font-weight:normal;line-height:125%;letter-spacing:0px;word-spacing:0px;fill:#000000;fill-opacity:1;stroke:none;font-family:Sans"
       x="251.13663"
       y="416.82159"
       id="text5891-1-5"
       sodipodi:linespacing="125%"><tspan
         sodipodi:role="line"
         id="tspan5893-3-4"
         x="251.13663"
         y="416.82159"
         style="font-size:12px;font-style:normal;font-variant:normal;font-weight:normal;font-stretch:normal;text-align:start;line-height:125%;writing-mode:lr-tb;text-anchor:start;font-family:Sans;-inkscape-font-specification:Sans">$y$</tspan></text>
    <path
       style="fill:none;stroke:#000000;stroke-width:1;stroke-miterlimit:4;stroke-opacity:1;stroke-dashoffset:0"
       d="m 423.57143,490.75504 c 10.76767,29.30223 -32.89229,34.53261 -51.78571,36.60715 -25.88074,2.84175 -35.03543,-12.39479 -25.35715,-35.17858 5.35714,-12.61133 3.24944,-38.75 27.85715,-42.67857 25.71069,-4.10466 39.94028,15.8181 49.28571,41.25 z"
       id="path3005"
       inkscape:connector-curvature="0"
       sodipodi:nodetypes="sssss" />
    <path
       style="fill:none;stroke:#000000;stroke-width:1px;stroke-linecap:butt;stroke-linejoin:miter;stroke-opacity:1"
       d="m 383.92857,525.93361 c 0,0 16.43946,5.54151 25,6.25 5.95105,0.49252 11.91439,-2.01277 17.85714,-1.42858 3.26295,0.32076 9.46429,2.67858 9.46429,2.67858"
       id="path3807"
       inkscape:connector-curvature="0"
       sodipodi:nodetypes="caac" />
    <path
       style="fill:none;stroke:#000000;stroke-width:1px;stroke-linecap:butt;stroke-linejoin:miter;stroke-opacity:1"
       d="m 409.82143,518.96932 c 0,0 12.40654,-3.45628 18.21429,-1.60714 1.48879,0.47402 2.00927,3.06498 3.57143,3.03572 1.93762,-0.0363 2.64743,-2.89334 4.28571,-3.92858 2.00898,-1.2695 6.60714,-2.67857 6.60714,-2.67857"
       id="path3809"
       inkscape:connector-curvature="0"
       sodipodi:nodetypes="caaac" />
    <path
       style="fill:none;stroke:#000000;stroke-width:1px;stroke-linecap:butt;stroke-linejoin:miter;stroke-opacity:1"
       d="m 423.03571,508.07647 c 0,0 2.25722,-0.29754 3.39286,-0.35715 0.89163,-0.0468 1.85368,0.34168 2.67857,0 0.62217,-0.25771 1.00718,-0.90326 1.42857,-1.42857 0.97125,-1.21077 1.51277,-2.73079 2.5,-3.92857 3.02608,-3.67146 10.35715,-9.82143 10.35715,-9.82143"
       id="path3811"
       inkscape:connector-curvature="0"
       sodipodi:nodetypes="caaaac" />
    <path
       sodipodi:type="arc"
       style="fill:#000000;fill-opacity:1;stroke:none"
       id="path5889-8"
       sodipodi:cx="380.625"
       sodipodi:cy="502.27289"
       sodipodi:rx="2.7678571"
       sodipodi:ry="2.7678571"
       d="m 383.39286,502.27289 a 2.7678571,2.7678571 0 1 1 -5.53572,0 2.7678571,2.7678571 0 1 1 5.53572,0 z"
       transform="matrix(0.41935482,0,0,0.41935482,274.31164,232.08877)" />
    <path
       sodipodi:type="arc"
       style="fill:#000000;fill-opacity:1;stroke:none"
       id="path5889-3"
       sodipodi:cx="380.625"
       sodipodi:cy="502.27289"
       sodipodi:rx="2.7678571"
       sodipodi:ry="2.7678571"
       d="m 383.39286,502.27289 a 2.7678571,2.7678571 0 1 1 -5.53572,0 2.7678571,2.7678571 0 1 1 5.53572,0 z"
       transform="matrix(0.41935482,0,0,0.41935482,153.9545,243.51734)" />
    <path
       sodipodi:type="arc"
       style="fill:#000000;fill-opacity:1;stroke:none"
       id="path5889-81"
       sodipodi:cx="380.625"
       sodipodi:cy="502.27289"
       sodipodi:rx="2.7678571"
       sodipodi:ry="2.7678571"
       d="m 383.39286,502.27289 a 2.7678571,2.7678571 0 1 1 -5.53572,0 2.7678571,2.7678571 0 1 1 5.53572,0 z"
       transform="matrix(0.41935482,0,0,0.41935482,263.37416,305.97268)" />
    <path
       sodipodi:type="arc"
       style="fill:none;stroke:#000000;stroke-width:0.2;stroke-miterlimit:4;stroke-opacity:1;stroke-dasharray:0.8, 0.8;stroke-dashoffset:0"
       id="path3891"
       sodipodi:cx="403.88394"
       sodipodi:cy="544.99609"
       sodipodi:rx="4.1517859"
       sodipodi:ry="4.1517859"
       d="m 408.03573,544.99609 a 4.1517859,4.1517859 0 1 1 -8.30357,0 4.1517859,4.1517859 0 1 1 8.30357,0 z"
       transform="translate(19.107143,-28.392857)" />
    <path
       sodipodi:type="arc"
       style="fill:#000000;fill-opacity:1;stroke:none"
       id="path5889-81-4"
       sodipodi:cx="380.625"
       sodipodi:cy="502.27289"
       sodipodi:rx="2.7678571"
       sodipodi:ry="2.7678571"
       d="m 383.39286,502.27289 a 2.7678571,2.7678571 0 1 1 -5.53572,0 2.7678571,2.7678571 0 1 1 5.53572,0 z"
       transform="matrix(0.41935482,0,0,0.41935482,212.34736,316.82091)" />
    <path
       sodipodi:type="arc"
       style="fill:none;stroke:#000000;stroke-width:0.2;stroke-miterlimit:4;stroke-opacity:1;stroke-dasharray:0.8, 0.8;stroke-dashoffset:0"
       id="path3891-5"
       sodipodi:cx="403.88394"
       sodipodi:cy="544.99609"
       sodipodi:rx="4.1517859"
       sodipodi:ry="4.1517859"
       d="m 408.03573,544.99609 a 4.1517859,4.1517859 0 1 1 -8.30357,0 4.1517859,4.1517859 0 1 1 8.30357,0 z"
       transform="translate(-31.919655,-17.544626)" />
    <path
       sodipodi:type="arc"
       style="fill:#000000;fill-opacity:1;stroke:none"
       id="path5889-81-6"
       sodipodi:cx="380.625"
       sodipodi:cy="502.27289"
       sodipodi:rx="2.7678571"
       sodipodi:ry="2.7678571"
       d="m 383.39286,502.27289 a 2.7678571,2.7678571 0 1 1 -5.53572,0 2.7678571,2.7678571 0 1 1 5.53572,0 z"
       transform="matrix(0.41935482,0,0,0.41935482,149.22236,346.10663)" />
    <path
       sodipodi:type="arc"
       style="fill:none;stroke:#000000;stroke-width:0.2;stroke-miterlimit:4;stroke-opacity:1;stroke-dasharray:0.8, 0.8;stroke-dashoffset:0"
       id="path3891-6"
       sodipodi:cx="403.88394"
       sodipodi:cy="544.99609"
       sodipodi:rx="4.1517859"
       sodipodi:ry="4.1517859"
       d="m 408.03573,544.99609 a 4.1517859,4.1517859 0 1 1 -8.30357,0 4.1517859,4.1517859 0 1 1 8.30357,0 z"
       transform="translate(-95.044655,11.741088)" />
    <path
       sodipodi:type="arc"
       style="fill:#000000;fill-opacity:1;stroke:none"
       id="path5889-81-8"
       sodipodi:cx="380.625"
       sodipodi:cy="502.27289"
       sodipodi:rx="2.7678571"
       sodipodi:ry="2.7678571"
       d="m 383.39286,502.27289 a 2.7678571,2.7678571 0 1 1 -5.53572,0 2.7678571,2.7678571 0 1 1 5.53572,0 z"
       transform="matrix(0.41935482,0,0,0.41935482,239.31165,285.83877)" />
    <path
       sodipodi:type="arc"
       style="fill:none;stroke:#000000;stroke-width:0.2;stroke-miterlimit:4;stroke-opacity:1;stroke-dasharray:0.8, 0.8;stroke-dashoffset:0"
       id="path3891-0"
       sodipodi:cx="403.88394"
       sodipodi:cy="544.99609"
       sodipodi:rx="4.1517859"
       sodipodi:ry="4.1517859"
       d="m 408.03573,544.99609 a 4.1517859,4.1517859 0 1 1 -8.30357,0 4.1517859,4.1517859 0 1 1 8.30357,0 z"
       transform="translate(-4.9553696,-48.526769)" />
    <path
       style="fill:none;stroke:#000000;stroke-width:0.09865786000000000;stroke-linecap:butt;stroke-linejoin:miter;stroke-miterlimit:4;stroke-opacity:1;stroke-dasharray:none;marker-start:url(#Arrow1Lstart)"
       d="m 402.79589,501.41301 43.44144,52.94641"
       id="path3932"
       inkscape:connector-curvature="0" />
    <path
       style="fill:none;stroke:#000000;stroke-width:0.10000000000000001;stroke-linecap:butt;stroke-linejoin:miter;stroke-opacity:1;stroke-miterlimit:4;stroke-dasharray:none;marker-start:url(#Arrow1Lstart)"
       d="m 375.77675,531.62855 70.2056,25.00127"
       id="path3934"
       inkscape:connector-curvature="0" />
    <path
       style="fill:none;stroke:#000000;stroke-width:0.10000000000000001;stroke-linecap:butt;stroke-linejoin:miter;stroke-opacity:1;stroke-miterlimit:4;stroke-dasharray:none;marker-start:url(#Arrow1Lstart)"
       d="m 427.04199,520.51687 18.94036,30.05204"
       id="path3936"
       inkscape:connector-curvature="0" />
    <text
       xml:space="preserve"
       style="font-size:40px;font-style:normal;font-weight:normal;line-height:125%;letter-spacing:0px;word-spacing:0px;fill:#000000;fill-opacity:1;stroke:none;font-family:Sans"
       x="446.66599"
       y="556.74292"
       id="text5891-9-8"
       sodipodi:linespacing="125%"><tspan
         sodipodi:role="line"
         id="tspan5893-2-1"
         x="446.66599"
         y="556.74292"
         style="font-size:12px;font-style:normal;font-variant:normal;font-weight:normal;font-stretch:normal;text-align:start;line-height:125%;writing-mode:lr-tb;text-anchor:start;font-family:Sans;-inkscape-font-specification:Sans">punti di accumulazione</tspan></text>
    <path
       style="fill:none;stroke:#000000;stroke-width:0.09022077;stroke-linecap:butt;stroke-linejoin:miter;stroke-miterlimit:4;stroke-opacity:1;stroke-dasharray:none;marker-start:url(#Arrow1Lstart)"
       d="m 374.87903,533.26272 12.62393,36.70121"
       id="path3936-1"
       inkscape:connector-curvature="0" />
    <path
       style="fill:none;stroke:#000000;stroke-width:0.0792679;stroke-linecap:butt;stroke-linejoin:miter;stroke-miterlimit:4;stroke-opacity:1;stroke-dasharray:none;marker-start:url(#Arrow1Lstart)"
       d="m 313.89258,557.46748 72.01071,15.3155"
       id="path3934-6"
       inkscape:connector-curvature="0" />
    <text
       xml:space="preserve"
       style="font-size:40px;font-style:normal;font-weight:normal;line-height:125%;letter-spacing:0px;word-spacing:0px;fill:#000000;fill-opacity:1;stroke:none;font-family:Sans"
       x="387.47925"
       y="576.48322"
       id="text5891-9-8-9"
       sodipodi:linespacing="125%"><tspan
         sodipodi:role="line"
         id="tspan5893-2-1-1"
         x="387.47925"
         y="576.48322"
         style="font-size:12px;font-style:normal;font-variant:normal;font-weight:normal;font-stretch:normal;text-align:start;line-height:125%;writing-mode:lr-tb;text-anchor:start;font-family:Sans;-inkscape-font-specification:Sans">punti di frontiera</tspan></text>
    <path
       style="fill:none;stroke:#000000;stroke-width:0.16722915;stroke-linecap:butt;stroke-linejoin:miter;stroke-miterlimit:4;stroke-opacity:1;stroke-dasharray:none;marker-start:url(#Arrow1Lstart)"
       d="m 312.30962,561.84537 38.04082,41.84429"
       id="path3936-4"
       inkscape:connector-curvature="0" />
    <text
       xml:space="preserve"
       style="font-size:40px;font-style:normal;font-weight:normal;line-height:125%;letter-spacing:0px;word-spacing:0px;fill:#000000;fill-opacity:1;stroke:none;font-family:Sans"
       x="351.25986"
       y="610.19543"
       id="text5891-9-8-9-2"
       sodipodi:linespacing="125%"><tspan
         sodipodi:role="line"
         id="tspan5893-2-1-1-2"
         x="351.25986"
         y="610.19543"
         style="font-size:12px;font-style:normal;font-variant:normal;font-weight:normal;font-stretch:normal;text-align:start;line-height:125%;writing-mode:lr-tb;text-anchor:start;font-family:Sans;-inkscape-font-specification:Sans">punto isolato</tspan></text>
  </g>
</svg>
